<svg class="logo-svg brand-logo" xmlns="http://www.w3.org/2000/svg" viewBox="0 0 2508 627" role="img" aria-labelledby="title desc">
    <defs>
        <linearGradient id="gold" gradientUnits="userSpaceOnUse" x1="115" y1="0" x2="2440" y2="0">
            <stop offset="0" stop-color="#d3b65f"/>
            <stop offset="0.18" stop-color="#f2df88"/>
            <stop offset="0.31" stop-color="#d0ab4a"/>
            <stop offset="0.48" stop-color="#b47a13"/>
            <stop offset="0.56" stop-color="#fff4a7"/>
            <stop offset="0.64" stop-color="#c79522"/>
            <stop offset="0.78" stop-color="#ecd879"/>
            <stop offset="0.84" stop-color="#fff5a9"/>
            <stop offset="0.93" stop-color="#d0a432"/>
            <stop offset="1" stop-color="#b87912"/>
        </linearGradient>
        <linearGradient id="white" gradientUnits="userSpaceOnUse" x1="610" y1="190" x2="610" y2="450">
            <stop offset="0" stop-color="#ffffff"/>
            <stop offset="0.6" stop-color="#f7f7f4"/>
            <stop offset="1" stop-color="#e6e1d4"/>
        </linearGradient>
        <filter id="shadow" x="-3%" y="-10%" width="106%" height="120%" color-interpolation-filters="sRGB">
            <feOffset in="SourceAlpha" dx="3" dy="3" result="offset"/>
            <feGaussianBlur in="offset" stdDeviation="2" result="blur"/>
            <feFlood flood-color="#000000" flood-opacity="0.55" result="color"/>
            <feComposite in="color" in2="blur" operator="in" result="shadow"/>
            <feMerge><feMergeNode in="shadow"/><feMergeNode in="SourceGraphic"/></feMerge>
        </filter>
        <filter id="softShadow" x="-5%" y="-12%" width="110%" height="124%" color-interpolation-filters="sRGB">
            <feOffset in="SourceAlpha" dx="2" dy="2" result="offset"/>
            <feGaussianBlur in="offset" stdDeviation="1.4" result="blur"/>
            <feFlood flood-color="#000000" flood-opacity="0.45" result="color"/>
            <feComposite in="color" in2="blur" operator="in" result="shadow"/>
            <feMerge><feMergeNode in="shadow"/><feMergeNode in="SourceGraphic"/></feMerge>
        </filter>
    </defs>
    <g fill-rule="evenodd" shape-rendering="geometricPrecision">
        <path d="M839 436 L840 438 L885 438 L885 436 L888 432 L888 428 L891 423 L893 413 L895 411 L897 400 L900 397 L968 397 L972 404 L974 415 L977 419 L977 423 L979 426 L979 424 L975 415 L972 403 L968 396 L900 396 L898 397 L893 415 L890 420 L890 424 L888 427 L886 435 L884 437 L841 437 L840 433 L842 430 L842 427 L845 423 L845 419 L847 417 L854 396 L849 407 L847 416 L844 420 L844 423 L842 429 L840 431 Z M1011 374 L1013 382 L1015 384 L1015 388 L1020 399 L1020 402 L1023 407 L1025 416 L1030 427 L1030 430 L1032 432 L1032 436 L1031 437 L983 437 L980 428 L980 431 L983 438 L1031 438 L1033 436 L1033 433 L1030 429 L1030 425 L1028 422 L1028 418 L1026 417 L1020 397 L1018 395 L1016 385 L1013 381 L1013 377 Z M1121 349 L1111 379 L1109 378 L1109 375 L1107 373 L1105 362 L1100 350 L1102 358 L1104 361 L1104 365 L1109 376 L1109 380 L1112 379 L1112 376 L1114 373 Z M999 340 L1010 372 L1008 363 L1006 361 L1006 358 Z M1176 325 L1136 428 L1143 412 L1143 409 L1146 405 L1146 402 L1150 394 L1152 386 L1155 382 L1155 378 L1157 376 L1160 366 L1162 364 L1164 355 L1167 351 L1167 348 L1170 343 L1172 335 L1174 333 Z M1431 325 L1431 433 L1431 326 L1433 325 L1474 378 L1475 381 L1482 388 L1482 390 L1494 404 L1494 406 L1497 408 L1510 425 L1511 428 L1514 430 L1519 438 L1556 438 L1556 437 L1519 437 L1433 324 Z M1088 314 L1099 348 L1093 326 Z M890 301 L885 312 L885 315 L883 317 L883 321 L880 325 L876 339 L873 343 L871 352 L868 356 L867 362 Z M933 296 L936 298 L936 302 L938 305 L941 317 L944 322 L945 329 L948 333 L948 338 L950 340 L953 352 L955 355 L955 358 L953 360 L914 360 L912 358 L912 356 L915 352 L917 341 L919 339 L921 329 L924 324 L924 320 L927 316 L929 305 Z M933 294 L931 296 L931 300 L929 303 L928 309 L919 333 L919 337 L917 339 L916 345 L912 354 L912 360 L914 361 L954 361 L956 360 L956 356 L953 350 L953 346 L946 329 L946 326 L944 323 L944 320 L941 314 L936 296 Z M1200 264 L1177 323 L1179 321 L1179 317 L1182 313 L1184 304 L1186 302 L1188 294 L1191 290 L1191 287 L1196 277 L1196 274 L1198 272 Z M2188 244 L2187 246 L2187 436 L2189 438 L2234 438 L2235 437 L2235 245 L2234 244 Z M1827 244 L1826 245 L1826 377 L1831 401 L1833 402 L1838 414 L1855 430 L1857 430 L1865 435 L1868 435 L1872 438 L1877 438 L1889 442 L1901 442 L1902 443 L1937 442 L1943 439 L1953 437 L1970 427 L1980 417 L1986 408 L1991 397 L1993 390 L1993 384 L1995 379 L1995 248 L1996 247 L1993 244 L1951 244 L1950 247 L1950 373 L1947 385 L1940 396 L1935 399 L1934 401 L1925 405 L1906 406 L1897 404 L1895 402 L1891 401 L1883 393 L1879 386 L1878 379 L1876 375 L1877 371 L1876 370 L1876 247 L1874 244 Z M1590 244 L1589 246 L1589 435 L1590 437 L1593 438 L1595 437 L1598 438 L1632 438 L1635 436 L1635 313 L1636 312 L1640 315 L1656 337 L1657 340 L1659 341 L1669 356 L1676 364 L1677 367 L1684 375 L1685 378 L1689 382 L1692 381 L1730 329 L1732 328 L1740 316 L1744 313 L1745 314 L1745 435 L1747 438 L1792 438 L1794 436 L1794 247 L1792 244 L1746 244 L1692 316 L1690 316 L1682 306 L1676 296 L1669 288 L1668 285 L1639 245 L1637 244 Z M1226 243 L1354 243 L1357 247 L1357 279 L1355 281 L1273 281 L1272 282 L1272 320 L1274 322 L1344 322 L1345 323 L1345 358 L1343 360 L1340 359 L1275 359 L1272 360 L1271 363 L1271 397 L1274 400 L1355 400 L1357 402 L1357 436 L1356 437 L1225 437 L1223 435 L1223 246 Z M619 245 L622 243 L667 243 L674 251 L677 257 L679 258 L721 317 L726 312 L740 293 L741 290 L777 243 L821 243 L823 245 L823 433 L824 435 L822 437 L777 437 L775 435 L775 318 L776 317 L775 312 L772 313 L768 320 L723 380 L720 382 L715 378 L714 375 L704 363 L703 360 L696 352 L695 349 L688 341 L681 330 L676 325 L670 315 L667 312 L665 312 L665 436 L664 437 L620 437 L619 436 Z M1555 243 L1513 243 L1511 245 L1511 351 L1510 352 L1508 351 L1502 341 L1496 335 L1487 321 L1482 316 L1482 314 L1479 312 L1473 302 L1467 296 L1461 286 L1428 243 L1388 243 L1386 244 L1386 436 L1388 438 L1431 438 L1431 436 L1430 437 L1388 437 L1387 436 L1387 245 L1390 243 L1427 243 L1432 248 L1468 298 L1499 338 L1508 352 L1512 353 L1512 245 L1515 243 L1554 243 L1556 246 Z M1224 243 L1223 244 L1223 437 L1224 438 L1356 438 L1357 437 L1357 400 L1356 399 L1273 399 L1272 398 L1272 362 L1274 360 L1340 360 L1343 361 L1346 357 L1346 324 L1344 321 L1274 321 L1272 319 L1272 283 L1274 281 L1357 281 L1357 244 L1355 243 Z M1206 243 L1158 243 L1155 245 L1155 248 L1152 252 L1152 256 L1150 259 L1150 263 L1147 268 L1145 278 L1143 280 L1143 284 L1140 288 L1138 300 L1135 304 L1135 308 L1126 332 L1126 336 L1123 340 L1122 347 L1156 245 L1157 244 L1204 243 L1207 245 L1207 247 L1201 262 L1203 260 L1203 256 L1206 252 L1206 249 L1208 246 Z M1010 243 L1009 244 L1010 252 L1013 256 L1013 259 L1016 264 L1018 273 L1020 275 L1022 284 L1025 288 L1025 292 L1027 294 L1030 305 L1032 307 L1034 316 L1037 320 L1039 330 L1042 334 L1046 348 L1049 352 L1051 362 L1054 366 L1054 369 L1061 385 L1063 394 L1066 398 L1066 402 L1069 406 L1071 415 L1073 416 L1073 420 L1075 423 L1075 426 L1078 430 L1078 434 L1081 438 L1132 438 L1134 436 L1135 430 L1132 437 L1081 437 L1075 421 L1073 419 L1071 410 L1068 405 L1066 396 L1064 394 L1061 383 L1059 381 L1059 378 L1056 373 L1054 364 L1052 362 L1052 359 L1044 341 L1044 338 L1040 330 L1037 319 L1035 317 L1035 313 L1032 309 L1030 300 L1028 298 L1023 281 L1020 277 L1018 268 L1015 263 L1015 260 L1009 246 L1011 243 L1062 243 L1065 246 L1066 251 L1068 253 L1068 257 L1071 262 L1073 272 L1075 275 L1078 287 L1080 289 L1080 293 L1083 298 L1087 312 L1081 290 L1078 285 L1078 281 L1075 277 L1073 266 L1071 264 L1069 254 L1066 249 L1066 245 L1063 243 Z M913 243 L909 248 L909 251 L907 254 L907 257 L905 259 L903 267 L907 258 L907 255 L910 250 L910 247 L914 243 L963 243 L965 245 L998 338 L996 329 L994 327 L992 318 L989 313 L989 309 L986 305 L984 295 L982 293 L980 284 L977 279 L977 275 L974 271 L972 261 L970 259 L969 253 L964 243 Z M618 244 L618 436 L620 438 L664 438 L666 436 L666 315 L667 314 L673 320 L674 323 L681 331 L690 345 L693 347 L698 356 L701 358 L715 379 L718 382 L722 382 L773 313 L775 314 L775 437 L776 438 L823 438 L824 437 L824 245 L822 243 L776 243 L722 316 L715 309 L705 293 L703 292 L702 289 L695 281 L677 254 L668 243 L620 243 Z M443 243 L443 258 L445 265 L445 275 L447 280 L449 304 L451 309 L453 327 L457 342 L459 358 L461 362 L463 378 L465 381 L467 395 L469 398 L469 402 L473 416 L477 422 L478 426 L484 434 L500 449 L512 457 L528 465 L549 473 L555 473 L555 471 L533 440 L521 418 L519 411 L511 396 L509 388 L507 387 L507 384 L501 371 L501 368 L499 366 L499 363 L493 349 L489 333 L485 324 L485 320 L481 311 L481 307 L477 297 L477 293 L469 267 L468 259 L455 251 L446 243 Z M2312 245 L2310 247 L2296 253 L2280 266 L2278 271 L2271 279 L2263 299 L2262 310 L2259 317 L2259 339 L2258 340 L2259 343 L2259 365 L2262 372 L2263 383 L2271 402 L2278 410 L2279 413 L2295 427 L2297 427 L2300 430 L2303 430 L2312 435 L2316 435 L2322 438 L2358 441 L2366 439 L2378 439 L2391 435 L2399 434 L2402 432 L2410 430 L2415 426 L2415 388 L2414 387 L2395 397 L2387 399 L2384 401 L2365 404 L2343 402 L2337 399 L2334 399 L2326 394 L2319 387 L2312 374 L2308 356 L2308 325 L2312 307 L2316 298 L2321 291 L2333 282 L2341 280 L2344 278 L2351 277 L2376 278 L2379 280 L2387 281 L2397 285 L2414 294 L2415 293 L2415 255 L2414 253 L2411 253 L2392 245 L2378 243 L2375 241 L2365 241 L2364 240 L2329 241 L2326 243 Z M2115 240 L2080 240 L2072 243 L2060 245 L2042 256 L2033 265 L2025 280 L2023 293 L2021 296 L2021 307 L2023 311 L2024 321 L2029 331 L2033 336 L2043 345 L2052 350 L2071 358 L2075 358 L2079 361 L2083 361 L2099 367 L2106 371 L2113 379 L2113 391 L2108 398 L2099 403 L2092 403 L2091 404 L2065 402 L2059 399 L2055 399 L2046 394 L2043 394 L2031 386 L2025 384 L2025 427 L2029 430 L2032 430 L2042 435 L2054 438 L2076 440 L2077 441 L2095 442 L2121 438 L2125 435 L2128 435 L2142 426 L2149 419 L2150 416 L2153 414 L2158 405 L2162 393 L2163 378 L2162 377 L2161 361 L2158 353 L2154 347 L2145 338 L2139 334 L2133 332 L2129 329 L2115 325 L2110 322 L2088 316 L2076 309 L2071 303 L2070 293 L2073 286 L2078 281 L2080 281 L2084 278 L2097 276 L2114 278 L2122 281 L2126 284 L2133 286 L2149 297 L2153 296 L2153 254 L2150 251 L2141 248 L2137 245 L2124 243 Z M410 199 L409 201 L409 222 L407 232 L407 270 L407 270 L406 271 L406 292 L405 293 L405 353 L407 361 L415 377 L420 384 L430 394 L454 410 L457 410 L463 414 L468 414 L466 400 L464 397 L462 383 L460 380 L458 364 L456 361 L454 345 L452 341 L452 335 L450 330 L450 323 L446 307 L446 299 L444 294 L444 288 L442 282 L442 273 L440 266 L440 255 L438 249 L438 237 L426 223 L418 211 L414 201 L412 199 Z M384 184 L382 186 L380 196 L373 213 L372 219 L362 243 L362 246 L360 248 L358 258 L356 260 L356 264 L354 267 L354 273 L352 276 L352 293 L354 296 L354 302 L356 304 L358 312 L368 328 L382 343 L396 353 L399 353 L400 351 L400 322 L402 310 L402 267 L403 266 L403 249 L404 248 L405 190 L389 184 Z M586 260 L568 257 L564 255 L559 255 L545 251 L537 247 L534 247 L519 239 L517 239 L501 228 L483 210 L475 200 L456 170 L446 151 L438 132 L429 120 L420 112 L407 105 L392 101 L389 99 L378 99 L366 134 L366 137 L364 139 L364 142 L362 145 L362 149 L360 151 L360 155 L358 157 L358 161 L356 163 L352 178 L350 180 L350 184 L346 192 L346 196 L344 198 L340 213 L336 221 L332 236 L326 250 L324 259 L322 261 L320 270 L318 272 L311 296 L305 310 L289 357 L286 358 L279 350 L268 342 L251 334 L247 334 L244 332 L238 332 L232 330 L210 330 L206 332 L199 332 L197 334 L193 334 L183 338 L164 350 L153 361 L143 376 L137 392 L137 421 L143 436 L149 445 L158 455 L164 460 L178 468 L193 473 L231 473 L251 466 L264 459 L272 453 L283 442 L292 429 L299 413 L307 385 L309 382 L309 379 L319 352 L319 348 L321 346 L323 337 L327 329 L327 326 L329 323 L335 302 L339 294 L341 284 L343 282 L345 273 L347 271 L349 261 L351 259 L351 255 L353 253 L353 249 L357 241 L357 238 L361 229 L361 226 L365 217 L361 226 L365 217 L365 214 L369 205 L375 184 L378 179 L390 179 L400 182 L406 186 L415 195 L433 224 L444 236 L463 251 L479 260 L486 262 L488 264 L496 266 L499 268 L513 271 L527 272 L528 273 L543 273 L571 268 L574 266 L583 264 Z" fill="url(#gold)" filter="url(#softShadow)"/>
        <path d="M933 293 L937 296 L937 299 L940 305 L947 329 L954 346 L954 350 L957 356 L957 360 L954 362 L914 362 L911 360 L911 354 L913 351 L916 339 L918 337 L918 333 L920 330 L920 327 L930 300 L930 296 Z M1388 245 L1388 436 L1430 436 L1431 435 L1430 433 L1430 325 L1432 323 L1436 326 L1519 436 L1556 436 L1556 247 L1554 244 L1515 244 L1513 245 L1513 353 L1512 354 L1509 354 L1498 338 L1427 244 L1390 244 Z M1226 244 L1224 246 L1224 435 L1225 436 L1356 436 L1356 402 L1355 401 L1274 401 L1270 397 L1270 363 L1272 359 L1275 358 L1340 358 L1343 359 L1344 358 L1344 323 L1274 323 L1271 320 L1271 282 L1273 280 L1355 280 L1356 279 L1356 247 L1354 244 Z M1011 244 L1010 246 L1016 260 L1016 263 L1019 268 L1021 277 L1024 281 L1024 284 L1026 287 L1029 298 L1031 300 L1033 309 L1036 313 L1036 317 L1038 319 L1041 330 L1045 338 L1045 341 L1053 359 L1053 362 L1055 364 L1057 373 L1060 378 L1060 381 L1062 383 L1065 394 L1067 396 L1069 405 L1072 410 L1074 419 L1076 421 L1081 436 L1132 436 L1132 433 L1135 429 L1135 426 L1139 418 L1140 413 L1144 406 L1144 403 L1149 393 L1149 390 L1151 388 L1153 380 L1156 375 L1156 372 L1159 368 L1161 359 L1163 357 L1164 352 L1168 344 L1168 341 L1171 337 L1171 334 L1176 324 L1178 316 L1180 314 L1180 311 L1185 301 L1185 298 L1187 296 L1188 291 L1192 283 L1192 280 L1195 276 L1197 267 L1200 263 L1200 260 L1206 245 L1204 244 L1157 245 L1151 261 L1151 264 L1149 267 L1149 271 L1146 276 L1146 279 L1137 303 L1137 307 L1134 312 L1132 322 L1130 325 L1124 346 L1122 348 L1122 352 L1120 355 L1113 379 L1111 381 L1109 381 L1064 246 L1062 244 Z M914 244 L911 247 L911 250 L908 255 L905 266 L903 268 L903 271 L896 287 L896 290 L894 292 L894 295 L891 300 L891 303 L882 324 L882 327 L879 332 L879 335 L870 356 L870 359 L867 363 L867 366 L858 388 L858 391 L855 395 L853 404 L851 406 L848 417 L846 419 L846 423 L843 427 L841 436 L884 436 L889 424 L889 420 L892 415 L897 397 L900 395 L968 395 L971 398 L980 427 L983 432 L983 436 L1031 436 L1031 432 L1029 430 L1029 427 L1024 416 L1022 407 L1014 388 L1014 384 L1012 382 L1010 373 L1007 368 L1005 359 L1002 354 L998 339 L995 334 L993 325 L990 320 L990 317 L983 300 L981 291 L978 286 L978 283 L963 244 Z M620 245 L620 436 L664 436 L664 312 L665 311 L667 311 L671 315 L677 325 L682 330 L719 381 L722 380 L767 320 L773 311 L775 311 L777 314 L776 318 L776 435 L777 436 L822 436 L823 435 L822 433 L822 245 L821 244 L777 244 L742 290 L741 293 L727 312 L721 318 L719 317 L699 287 L667 244 L622 244 Z" fill="url(#white)" stroke="#9d9a8d" stroke-width="1.5" filter="url(#shadow)"/>
    </g>
</svg>