<svg xmlns="http://www.w3.org/2000/svg" viewBox="0 0 400 80" role="img" aria-label="Maven Music Network - OpenCart Bundle System"><defs><linearGradient id="g" x1="0%" y1="0%" x2="100%" y2="0%"><stop offset="0%" stop-color="#d3b65f" /><stop offset="18%" stop-color="#f2df88" /><stop offset="31%" stop-color="#d0ab4a" /><stop offset="48%" stop-color="#b47a13" /><stop offset="56%" stop-color="#fff4a7" /><stop offset="64%" stop-color="#c79522" /><stop offset="78%" stop-color="#ecd879" /><stop offset="84%" stop-color="#fff5a9" /><stop offset="93%" stop-color="#d0a432" /><stop offset="100%" stop-color="#b87912" /></linearGradient><linearGradient id="gs" x1="0%" y1="0%" x2="100%" y2="0%"><stop offset="0%" stop-color="#d3b65f" stop-opacity="0.4" /><stop offset="100%" stop-color="#d3b65f" stop-opacity="0.4" /></linearGradient></defs><rect x="0" y="0" width="400" height="80" rx="8" fill="#0a0a0a" stroke="url(#gs)" stroke-width="1" /><g transform="translate(16, 16)"><rect x="0" y="32" width="40" height="26" rx="3" fill="#1a1a1a" stroke="url(#g)" stroke-width="1.5" /><rect x="5" y="38" width="30" height="3" rx="1.5" fill="url(#g)" opacity="0.7" /><rect x="5" y="44" width="20" height="3" rx="1.5" fill="url(#g)" opacity="0.4" /><rect x="8" y="16" width="40" height="26" rx="3" fill="#1a1a1a" stroke="url(#g)" stroke-width="1.5" /><rect x="13" y="22" width="30" height="3" rx="1.5" fill="url(#g)" opacity="0.7" /><rect x="13" y="28" width="20" height="3" rx="1.5" fill="url(#g)" opacity="0.4" /><rect x="16" y="0" width="40" height="26" rx="3" fill="#1a1a1a" stroke="url(#g)" stroke-width="1.5" /><rect x="21" y="6" width="30" height="3" rx="1.5" fill="url(#g)" opacity="0.7" /><rect x="21" y="12" width="20" height="3" rx="1.5" fill="url(#g)" opacity="0.4" /><circle cx="56" cy="45" r="10" fill="url(#g)" /><path d="M56 39 L56 51 M50 45 L62 45" stroke="#0a0a0a" stroke-width="2.5" stroke-linecap="round" /></g><text x="80" y="34" font-family="'Maven Pro','Segoe UI',sans-serif" font-weight="700" font-size="18" fill="url(#g)" letter-spacing="2">MAVEN MUSIC</text><text x="80" y="54" font-family="'Maven Pro','Segoe UI',sans-serif" font-weight="500" font-size="10" fill="#888" letter-spacing="3">OPENCART + STRAPI CMS</text><line x1="80" y1="60" x2="380" y2="60" stroke="url(#gs)" stroke-width="0.5" opacity="0.4" /><text x="80" y="72" font-family="'Maven Pro','Segoe UI',sans-serif" font-weight="400" font-size="8" fill="#666" letter-spacing="2">PRODUCT BUNDLE SYSTEM</text></svg>